<svg id="visual" viewBox="0 0 900 600" width="900" height="600" xmlns="http://www.w3.org/2000/svg" xmlns:xlink="http://www.w3.org/1999/xlink" version="1.1"><path d="M0 127L113 127L113 211L225 211L225 181L338 181L338 109L450 109L450 187L563 187L563 121L675 121L675 115L788 115L788 169L900 169L900 211L900 0L900 0L788 0L788 0L675 0L675 0L563 0L563 0L450 0L450 0L338 0L338 0L225 0L225 0L113 0L113 0L0 0Z" fill="#fa7268"></path><path d="M0 223L113 223L113 259L225 259L225 235L338 235L338 163L450 163L450 277L563 277L563 181L675 181L675 181L788 181L788 217L900 217L900 295L900 209L900 167L788 167L788 113L675 113L675 119L563 119L563 185L450 185L450 107L338 107L338 179L225 179L225 209L113 209L113 125L0 125Z" fill="#ed6266"></path><path d="M0 319L113 319L113 373L225 373L225 337L338 337L338 277L450 277L450 409L563 409L563 235L675 235L675 325L788 325L788 349L900 349L900 355L900 293L900 215L788 215L788 179L675 179L675 179L563 179L563 275L450 275L450 161L338 161L338 233L225 233L225 257L113 257L113 221L0 221Z" fill="#df5265"></path><path d="M0 463L113 463L113 487L225 487L225 475L338 475L338 499L450 499L450 487L563 487L563 457L675 457L675 511L788 511L788 469L900 469L900 475L900 353L900 347L788 347L788 323L675 323L675 233L563 233L563 407L450 407L450 275L338 275L338 335L225 335L225 371L113 371L113 317L0 317Z" fill="#d04263"></path><path d="M0 547L113 547L113 523L225 523L225 529L338 529L338 547L450 547L450 547L563 547L563 523L675 523L675 553L788 553L788 547L900 547L900 541L900 473L900 467L788 467L788 509L675 509L675 455L563 455L563 485L450 485L450 497L338 497L338 473L225 473L225 485L113 485L113 461L0 461Z" fill="#c13361"></path><path d="M0 601L113 601L113 601L225 601L225 601L338 601L338 601L450 601L450 601L563 601L563 601L675 601L675 601L788 601L788 601L900 601L900 601L900 539L900 545L788 545L788 551L675 551L675 521L563 521L563 545L450 545L450 545L338 545L338 527L225 527L225 521L113 521L113 545L0 545Z" fill="#b0235f"></path></svg>